INFO:httpx:HTTP Request: POST https://close-sunfish-80475.upstash.io/del/ingest:101280:24.0 "HTTP/1.1 200 OK"
INFO:databases:Connected to database postgresql+asyncpg://neondb_owner:********@ep-red-star-a19jjtnh-pooler.ap-southeast-1.aws.neon.tech/neondb?sslmode=require&channel_binding=require
INFO:apps.api.services.ingestion.main:Starting ingestion for Anime: 101280 | Ep: 24.0 | Provider: oploverz
INFO:apps.api.services.ingestion.core.slicer:Streaming and Slicing video from https://pixeldrain.com/api/file/v5ohkSCM to /data/data/com.termux/files/home/workspace/anime-scraper-pro/tmp_ingest/hls/oploverz_101280_24.0/index.m3u8 with 12s segments...
INFO:httpx:HTTP Request: HEAD https://jonyyyyyyyu-anime-scraper-api.hf.space/healthz "HTTP/1.1 200 OK"
INFO:apps.api.services.ingestion.main:[Keep-Alive] Pinged HF Space health endpoint to prevent sleep.
ERROR:apps.api.services.ingestion.core.slicer:FFmpeg streaming slicing failed to produce playlist. Error: ffmpeg version 8.1 Copyright (c) 2000-2026 the FFmpeg developers
  built with Android (13989888, +pgo, +bolt, +lto, +mlgo, based on r563880c) clang version 21.0.0 (https://android.googlesource.com/toolchain/llvm-project 5e96669f06077099aa41290cdb4c5e6fa0f59349)
  configuration: --arch=aarch64 --as=aarch64-linux-android-clang --cc=aarch64-linux-android-clang --cxx=aarch64-linux-android-clang++ --nm=llvm-nm --ar=llvm-ar --ranlib=llvm-ranlib --pkg-config=/home/builder/.termux-build/_cache/android-r29-api-24-v4/bin/pkg-config --strip=llvm-strip --cross-prefix=aarch64-linux-android- --disable-indevs --disable-outdevs --enable-indev=lavfi --disable-static --disable-symver --enable-cross-compile --enable-gpl --enable-version3 --enable-jni --enable-lcms2 --enable-libaom --enable-libass --enable-libbluray --enable-libbs2b --enable-libdav1d --enable-libfontconfig --enable-libfreetype --enable-libfribidi --enable-libglslang --enable-libgme --enable-libharfbuzz --enable-libmp3lame --enable-libopencore-amrnb --enable-libopencore-amrwb --enable-libopenmpt --enable-libopus --enable-libplacebo --enable-librav1e --enable-librubberband --enable-libsoxr --enable-libsrt --enable-libssh --enable-libsvtav1 --enable-libtheora --enable-libv4l2 --enable-libvidstab --enable-libvmaf --enable-libvo-amrwbenc --enable-libvorbis --enable-libvpx --enable-libwebp --enable-libx264 --enable-libx265 --enable-libxml2 --enable-libxvid --enable-libzimg --enable-libzmq --enable-mediacodec --enable-opencl --enable-openssl --enable-shared --prefix=/data/data/com.termux/files/usr --target-os=android --extra-libs=-landroid-glob --enable-vulkan --enable-neon --disable-libfdk-aac
  libavutil      60. 26.100 / 60. 26.100
  libavcodec     62. 28.100 / 62. 28.100
  libavformat    62. 12.100 / 62. 12.100
  libavdevice    62.  3.100 / 62.  3.100
  libavfilter    11. 14.100 / 11. 14.100
  libswscale      9.  5.100 /  9.  5.100
  libswresample   6.  3.100 /  6.  3.100
Input #0, matroska,webm, from 'https://pixeldrain.com/api/file/v5ohkSCM':
  Metadata:
    encoder         : libebml v1.3.7 + libmatroska v1.5.0
    creation_time   : 2019-03-18T17:01:43.000000Z
  Duration: 00:23:50.10, start: 0.000000, bitrate: 727 kb/s
  Chapters:
    Chapter #0:0: start 0.000000, end 109.500000
      Metadata:
        title           : Bagian 1
    Chapter #0:1: start 109.500000, end 199.000000
      Metadata:
        title           : Lagu Pembuka: "Meguru Mono" by Takuma Terashima
    Chapter #0:2: start 199.000000, end 1425.000000
      Metadata:
        title           : Bagian 2
    Chapter #0:3: start 1425.000000, end 1429.972000
      Metadata:
        title           : Judul Episode Selanjutnya
  Stream #0:0: Subtitle: ass (ssa) (default)
    Metadata:
      BPS-eng         : 134
      DURATION-eng    : 00:23:43.120000000
      NUMBER_OF_FRAMES-eng: 364
      NUMBER_OF_BYTES-eng: 23996
      _STATISTICS_WRITING_APP-eng: mkvmerge v32.0.0 ('Astral Progressions') 64-bit
      _STATISTICS_WRITING_DATE_UTC-eng: 2019-03-18 17:01:43
      _STATISTICS_TAGS-eng: BPS DURATION NUMBER_OF_FRAMES NUMBER_OF_BYTES
  Stream #0:1(eng): Video: h264 (High), yuv420p(progressive), 1280x720 [SAR 1:1 DAR 16:9], 23.98 fps, 23.98 tbr, 1k tbn (default)
    Metadata:
      BPS-eng         : 692126
      DURATION-eng    : 00:23:50.096000000
      NUMBER_OF_FRAMES-eng: 34288
      NUMBER_OF_BYTES-eng: 123725868
      _STATISTICS_WRITING_APP-eng: mkvmerge v32.0.0 ('Astral Progressions') 64-bit
      _STATISTICS_WRITING_DATE_UTC-eng: 2019-03-18 17:01:43
      _STATISTICS_TAGS-eng: BPS DURATION NUMBER_OF_FRAMES NUMBER_OF_BYTES
  Stream #0:2: Audio: aac (HE-AAC), 44100 Hz, stereo, fltp, start 0.012000 (default)
    Metadata:
      BPS-eng         : 31981
      DURATION-eng    : 00:23:49.977000000
      NUMBER_OF_FRAMES-eng: 30792
      NUMBER_OF_BYTES-eng: 5716545
      _STATISTICS_WRITING_APP-eng: mkvmerge v32.0.0 ('Astral Progressions') 64-bit
      _STATISTICS_WRITING_DATE_UTC-eng: 2019-03-18 17:01:43
      _STATISTICS_TAGS-eng: BPS DURATION NUMBER_OF_FRAMES NUMBER_OF_BYTES
  Stream #0:3: Attachment: otf
    Metadata:
      filename        : Puritan-Bold.otf
      mimetype        : application/vnd.ms-opentype
  Stream #0:4: Attachment: otf
    Metadata:
      filename        : Puritan-BoldItalic.otf
      mimetype        : application/vnd.ms-opentype
  Stream #0:5: Attachment: otf
    Metadata:
      filename        : Puritan-Regular.otf
      mimetype        : application/vnd.ms-opentype
[sost#0:2 @ 0xb4000072008d31b0] Multiple -codec/-c/-acodec/-vcodec/-scodec/-dcodec options specified for stream 2, only the last option '-codec:s webvtt' will be used.
[sost#0:4 @ 0xb4000072008d6d10] Multiple -codec/-c/-acodec/-vcodec/-scodec/-dcodec options specified for stream 4, only the last option '-codec:s webvtt' will be used.
Stream mapping:
  Stream #0:1 -> #0:0 (copy)
  Stream #0:2 -> #0:1 (copy)
  Stream #0:0 -> #0:2 (ass (ssa) -> webvtt (native))
  Stream #0:2 -> #0:3 (copy)
  Stream #0:0 -> #0:4 (ass (ssa) -> webvtt (native))
Press [q] to stop, [?] for help
[hls @ 0xb4000072008db1d0] Opening '/data/data/com.termux/files/home/workspace/anime-scraper-pro/tmp_ingest/hls/oploverz_101280_24.0/index0.vtt' for writing
[webvtt @ 0xb4000072008da230] webvtt muxer does not support more than one stream of type subtitle
[out#0/hls @ 0xb4000072e08cf270] Could not write header (incorrect codec parameters ?): Invalid argument
[sost#0:4/webvtt @ 0xb4000072008d6d10] Task finished with error code: -22 (Invalid argument)
[sost#0:4/webvtt @ 0xb4000072008d6d10] Terminating thread with return code -22 (Invalid argument)
[out#0/hls @ 0xb4000072e08cf270] Nothing was written into output file, because at least one of its streams received no packets.
frame=    0 fps=0.0 q=-1.0 Lsize=       0KiB time=N/A bitrate=N/A speed=N/A elapsed=0:00:00.67    
Conversion failed!

ERROR:apps.api.services.ingestion.main:Failed to slice video on-the-fly.
INFO:databases:Disconnected from database postgresql+asyncpg://neondb_owner:********@ep-red-star-a19jjtnh-pooler.ap-southeast-1.aws.neon.tech/neondb?sslmode=require&channel_binding=require
INFO:httpx:HTTP Request: POST https://close-sunfish-80475.upstash.io/del/ingest:101280:24.0 "HTTP/1.1 200 OK"
INFO:apps.api.services.ingestion.main:Released lock for ingest:101280:24.0
INFO:databases:Disconnected from database postgresql+asyncpg://neondb_owner:********@ep-red-star-a19jjtnh-pooler.ap-southeast-1.aws.neon.tech/neondb?sslmode=require&channel_binding=require
🚀 Memulai Final Ingestion: Ep 24 (Single Subtitle Mode)...
Hasil: False
